<?xml version="1.0" encoding="UTF-8"?>
<svg version="1.1" xmlns="http://www.w3.org/2000/svg" width="249" height="244">
<path d="M0 0 C82.17 0 164.34 0 249 0 C249 80.52 249 161.04 249 244 C166.83 244 84.66 244 0 244 C0 163.48 0 82.96 0 0 Z " fill="#0A4D68" transform="translate(0,0)"/>
<path d="M0 0 C6.59704646 3.84714824 11.60940463 9.00837488 13.75 16.4375 C14.90367377 24.11137496 13.1679366 30.09733618 8.75 36.4375 C4.30554057 41.2851866 -0.1775923 44.91399169 -6.86328125 45.7734375 C-14.90758369 45.88985288 -19.91077498 44.32137615 -26 39.0625 C-31.49850126 32.64758186 -33.69675518 27.79969176 -33.5859375 19.421875 C-32.92385718 13.54013817 -30.55734888 8.68437401 -26.3125 4.55078125 C-18.61294717 -1.47178564 -9.34072996 -4.24247579 0 0 Z " fill="#F9F5E4" transform="translate(51.25,182.5625)"/>
<path d="M0 0 C6.32709047 4.10206366 11.13978303 9.4287168 13.15625 16.83203125 C14.34553181 24.5106551 12.48346567 30.4491042 8.15625 36.83203125 C6.25123222 38.96687691 4.581941 40.19840262 2.15625 41.83203125 C1.29 42.43015625 0.42375 43.02828125 -0.46875 43.64453125 C-7.17706217 46.00486331 -15.37347433 45.96829253 -21.9609375 43.07421875 C-26.89052805 39.82191627 -30.63199732 35.15455721 -33.34375 29.95703125 C-34.48189175 22.84364529 -34.94697867 16.10049244 -31.25 9.68359375 C-23.67611614 -0.28868666 -12.08637775 -4.964048 0 0 Z " fill="#F9F6E4" transform="translate(51.84375,16.16796875)"/>
<path d="M0 0 C6.26599154 3.51652625 10.44888044 8.0696988 12.6875 14.9375 C13.61158019 23.74626445 12.48137711 30.49014514 7.0625 37.625 C2.36209715 42.76534203 -3.34126314 45.08786185 -10.25 45.5 C-16.78020708 45.19532471 -22.41495499 42.61952513 -27.203125 38.1875 C-32.98923238 31.67110722 -33.9417758 26.33949756 -33.6875 17.64453125 C-32.92170786 10.07435689 -28.77578252 5.90885647 -23.15625 1.1640625 C-16.03474899 -3.57354622 -7.63724638 -3.50713429 0 0 Z " fill="#F9F5E4" transform="translate(218.3125,183.0625)"/>
<path d="M0 0 C6.22548098 3.1916868 10.84667304 8.85566656 13.125 15.4375 C13.96424251 23.11890024 13.22647642 29.13390094 8.61328125 35.53515625 C5.13155811 39.84623366 1.74846928 43.40421236 -3.875 44.4375 C-11.33600059 45.2209941 -18.08761626 45.63068055 -24.265625 40.91796875 C-30.38635178 35.28749436 -33.83180366 29.38661689 -34.375 21.0625 C-34.09055863 14.46346012 -31.37872012 8.85352415 -26.64453125 4.28515625 C-18.687032 -2.06266942 -9.76515372 -3.8861326 0 0 Z " fill="#F9F6E4" transform="translate(134.875,99.5625)"/>
<path d="M0 0 C5.55300319 3.30842085 10.43828167 8.12734501 12.5 14.3125 C13.13885473 21.96828372 13.43289009 29.06417255 8.5 35.3125 C4.05190245 39.90643682 -0.19059413 44.00548283 -6.7421875 44.61328125 C-7.94101563 44.61714844 -9.13984375 44.62101562 -10.375 44.625 C-11.56867188 44.64175781 -12.76234375 44.65851562 -13.9921875 44.67578125 C-21.75796186 43.87153068 -25.82619789 39.35766352 -30.75 33.75 C-34.61199542 28.3707921 -33.96835166 21.68542794 -33.5 15.3125 C-32.00600527 9.22666854 -28.41982666 4.72298489 -23.4375 1.0625 C-16.6771141 -2.96496394 -7.17989787 -3.40461696 0 0 Z " fill="#F9F6E5" transform="translate(218.5,16.6875)"/>
<path d="M0 0 C5.21746061 2.75143984 9.20307063 6.63264939 11.09765625 12.31640625 C11.92332105 18.29657843 11.1717819 22.6471529 7.6328125 27.5859375 C4.3454371 31.29155404 1.36172163 32.96577666 -3.55078125 33.7265625 C-9.1142064 34.02378658 -13.16961387 33.55184446 -17.46484375 29.85546875 C-21.40311466 25.63895044 -23.13083813 22.08689791 -23.40234375 16.25390625 C-23.15491848 10.81055042 -21.34661417 7.66494807 -17.40625 3.87890625 C-12.32275689 -0.5834119 -6.53523891 -2.34839181 0 0 Z " fill="#FAF4E3" transform="translate(213.90234375,104.68359375)"/>
<path d="M0 0 C4.39533457 2.5053407 6.94594492 5.79449228 8.75 10.5 C9.65760538 15.17456932 9.27059004 19.07731091 7.0625 23.3125 C4.82318003 26.39913022 2.89485413 28.37722346 -0.25 30.5 C-0.848125 30.9125 -1.44625 31.325 -2.0625 31.75 C-6.12398433 33.14250891 -10.12454092 33.26971358 -14.1484375 31.8125 C-19.37138698 29.07558324 -23.35711518 25.17865447 -25.25 19.5 C-26.07584696 13.51850842 -25.31797828 9.17733086 -21.79296875 4.23046875 C-15.90601441 -2.37186232 -8.03775009 -3.3906893 0 0 Z " fill="#FAF4E3" transform="translate(91.25,147.5)"/>
<path d="M0 0 C5.47230402 2.38791448 8.72671673 6.55760574 11 12 C12.10314082 17.09757815 11.38897001 20.90022477 8.75 25.375 C5.99684001 29.28697592 3.57877414 31.47374195 -1 33 C-6.16036039 33.49416324 -10.59273205 33.62545242 -15.375 31.5 C-19.90583714 27.18491701 -23.22536835 22.92740906 -23.625 16.5 C-23.22626517 10.08701489 -19.90298286 5.85656864 -15.4375 1.5 C-10.28505897 -0.7483379 -5.53284043 -0.73060892 0 0 Z " fill="#FAF5E4" transform="translate(89,63)"/>
<path d="M0 0 C4.73497175 3.05142624 8.41596363 6.2263545 9.8125 11.8125 C10.4069768 17.53433923 10.14224157 21.92887904 6.8125 26.8125 C2.61617308 31.04322304 -1.03132066 32.95079891 -7 33.125 C-11.87374531 33.06124461 -14.45678063 32.10941479 -18.1875 28.8125 C-19.13625 28.008125 -20.085 27.20375 -21.0625 26.375 C-24.21355741 22.38773965 -23.81337929 17.74259684 -23.59765625 12.875 C-22.93384567 7.91854768 -21.21409622 5.48937386 -17.421875 2.3515625 C-11.58069858 -1.81085062 -6.8658094 -2.55785056 0 0 Z " fill="#FAF5E4" transform="translate(48.1875,105.1875)"/>
<path d="M0 0 C3.7229703 2.6592645 6.55543557 5.73587115 8.625 9.875 C9.18213132 15.83201945 9.14680186 20.82708399 5.625 25.875 C1.20401207 30.21346282 -1.93509249 32.04122109 -8.125 32.1875 C-13.40227204 32.13068726 -16.42424942 31.62821305 -20.375 27.875 C-24.43138354 22.50303261 -25.92841254 18.62663305 -25.375 11.875 C-23.74559869 6.70214162 -21.10616998 2.65716878 -16.5 -0.28125 C-11.09436346 -2.42760568 -5.4019036 -1.80063453 0 0 Z " fill="#FAF5E4" transform="translate(174.375,64.125)"/>
<path d="M0 0 C4.19843684 2.97778021 7.15470738 5.84547601 8.671875 10.87109375 C9.53996854 16.69716482 9.53217156 21.41078429 6.109375 26.37109375 C2.00654499 31.06004233 -2.12646493 32.59151787 -8.265625 33.37109375 C-13.99806787 33.1480415 -18.44273442 29.87812243 -22.265625 25.80859375 C-24.94229349 20.92761003 -24.94610378 15.29557418 -24.328125 9.87109375 C-19.76559713 0.74603802 -9.83287883 -4.76795634 0 0 Z " fill="#FAF5E4" transform="translate(132.328125,22.12890625)"/>
<path d="M0 0 C3.53564388 2.53352525 5.86288048 4.84563189 7.6875 8.875 C8.53603199 14.8537369 8.12867296 19.77257113 4.6875 24.875 C0.4141759 29.82305949 -2.67436995 31.57226377 -9.125 32.3125 C-15.35944183 32.13571999 -19.55887951 28.62862049 -23.8125 24.375 C-26.16582044 18.88391898 -26.38381727 13.73867653 -25.3125 7.875 C-22.99393648 3.64588832 -19.98158013 0.92915587 -15.9375 -1.625 C-10.07802509 -2.74109046 -5.30681632 -3.07914156 0 0 Z " fill="#FAF5E4" transform="translate(175.3125,148.125)"/>
<path d="M0 0 C4.89845576 2.05666871 7.64546294 5.28408129 10 10 C10.80952334 15.35306425 10.91177459 21.07278076 8.4375 26 C4.97905856 30.25654332 1.93434153 32.59077329 -3.46484375 33.34375 C-8.68666382 33.53220666 -12.61382824 33.06011984 -17 30 C-21.22638028 25.79658918 -23.13817147 22.16054581 -23.3125 16.1875 C-23.25598008 11.3338519 -22.27564572 8.71830054 -19 5 C-12.87804345 -0.3931522 -8.06345824 -0.91770816 0 0 Z " fill="#FAF5E4" transform="translate(131,188)"/>
<path d="M0 0 C3.54019765 1.85928985 6.39360751 4.05336423 7.61328125 7.96875 C7.87804546 11.90238963 7.08699578 14.36369089 4.625 17.4375 C1.59955895 20.39090674 0.89975442 20.89618218 -3.25 21.375 C-7.01778402 20.9982216 -9.05422362 20.31563554 -11.82421875 17.6875 C-14.12771964 14.38147878 -14.55417427 10.94156448 -14 7 C-10.75547796 0.90384727 -6.69156381 -0.76788437 0 0 Z " fill="#FAF2E2" transform="translate(128,69)"/>
<path d="M0 0 C3.29668636 2.34498706 4.81154853 4.9949255 5.5625 9 C4.85145836 12.79222207 3.38969819 14.99580798 1 18 C-2.76875875 20.51250583 -4.53150134 20.53016086 -9 20 C-11.97361628 18.21847933 -14.42653612 16.14692775 -16 13 C-16.43103448 5.24137931 -16.43103448 5.24137931 -14 2 C-9.71705333 -1.76380161 -5.22905832 -1.7020443 0 0 Z " fill="#FAF2E2" transform="translate(172,195)"/>
<path d="M0 0 C2.97672584 1.77280561 5.42804007 3.85608015 7 7 C7.59968751 12.27725011 6.27164725 14.88707202 3 19 C-0.76875875 21.51250583 -2.53150134 21.53016086 -7 21 C-9.97361628 19.21847933 -12.42653612 17.14692775 -14 14 C-14.67660495 8.13609041 -14.67660495 8.13609041 -12.953125 5.2421875 C-8.88769589 0.2919297 -6.36332911 -0.63633291 0 0 Z " fill="#FAF3E2" transform="translate(45,69)"/>
<path d="M0 0 C4.42610196 0.36279524 6.39743509 1.54792364 9.8125 4.3125 C11.54881636 7.78513273 11.41440402 11.52443013 10.8125 15.3125 C8.63090855 18.06819447 6.94072506 19.74838747 3.8125 21.3125 C0.5 21.6875 0.5 21.6875 -3.1875 21.3125 C-6.0625 18.875 -6.0625 18.875 -8.1875 16.3125 C-8.5175 15.9825 -8.8475 15.6525 -9.1875 15.3125 C-9.62916754 12.25868444 -9.66973087 9.36144358 -9.1875 6.3125 C-6.75 3.3125 -6.75 3.3125 -4.1875 1.3125 C-3.1875 0.3125 -3.1875 0.3125 0 0 Z " fill="#FAF3E2" transform="translate(82.1875,193.6875)"/>
<path d="M0 0 C3.02508145 1.73602105 5.41790069 3.83580137 7 7 C7.59873168 12.26883876 6.25400021 14.8846468 3 19 C-0.7489923 20.87449615 -4.92720547 20.65855233 -9 20 C-11.84064179 18.30063151 -12.34854524 17.08271556 -14 14 C-14.91506578 9.77091223 -14.4917442 6.77039925 -12.125 3.0625 C-8.5135633 -0.44271798 -4.88427301 -0.83367925 0 0 Z " fill="#FAF3E3" transform="translate(170,111)"/>
<path d="M0 0 C3.95403662 0.26360244 5.65370756 0.86143155 8.75 3.25 C11.41836411 7.25254616 11.5840238 10.54313299 10.75 15.25 C8.56840855 18.00569447 6.87822506 19.68588747 3.75 21.25 C-0.43144011 21.64447548 -2.55946048 21.70035186 -6.125 19.375 C-8.96941408 16.53058592 -9.45354172 14.8612568 -9.625 10.9375 C-9.60629584 7.06573889 -9.39868109 6.43299211 -6.8125 3.25 C-5.966875 2.59 -5.12125 1.93 -4.25 1.25 C-3.25 0.25 -3.25 0.25 0 0 Z " fill="#FAF3E3" transform="translate(207.25,68.75)"/>
<path d="M0 0 C2.87029869 1.79393668 4.49131638 2.98263276 6 6 C6.37712577 10.99691647 6.09290612 13.99067725 3 18 C-0.54226852 20.36151235 -2.53966844 20.60015819 -6.703125 20.51171875 C-10.27141702 19.71674213 -11.87196201 17.83098156 -13.96484375 14.93359375 C-15.53178184 12.00667165 -15.69043435 10.24504144 -15 7 C-11.06142639 0.04185329 -7.71503326 -0.99935664 0 0 Z " fill="#FAF3E3" transform="translate(129,153)"/>
<path d="M0 0 C3.69264401 2.86368311 5.74125481 5.10253527 6.375 9.75 C5.8528401 14.2753858 4.15770622 15.7671103 1 19 C-2.21694364 20.60847182 -5.52137222 20.61309149 -9 20 C-12.883836 16.85987727 -14.8023937 14.71258797 -15.375 9.75 C-15.00179897 6.01798973 -14.35847702 3.87350986 -11.7578125 1.109375 C-8.10645708 -1.19503598 -4.09275121 -0.92070101 0 0 Z " fill="#FBF3E3" transform="translate(46,153)"/>
<path d="M0 0 C3.125 1.9375 3.125 1.9375 5 5 C5.93971476 9.68164203 5.66873692 12.93002092 3.125 17 C-0.14840013 20.08084718 -2.46126475 20.33387487 -6.9609375 20.29296875 C-10.13134567 19.83745033 -11.8192402 18.24684343 -14 16 C-15.7473737 12.50525261 -15.55225821 8.81321144 -15 5 C-11.39489863 -0.88833223 -6.35802772 -1.26118255 0 0 Z " fill="#FAF4E3" transform="translate(213,153)"/>
<path d="M0 0 C3.125 1.9375 3.125 1.9375 5 5 C5.93971476 9.68164203 5.66873692 12.93002092 3.125 17 C-0.35752372 20.27766938 -3.07968504 20.47351314 -7.734375 20.3984375 C-10 20 -10 20 -13.0625 17.5625 C-15.33004238 14.2283436 -15.73750344 11.10255086 -15.46875 7.125 C-15 5 -15 5 -13.125 1.9375 C-8.71974058 -0.79376084 -5.05077166 -1.00187438 0 0 Z " fill="#FAF4E3" transform="translate(88,28)"/>
<path d="M0 0 C2.8100346 1.79363911 4.50940468 3.01880935 6 6 C6.64233846 10.6707182 6.62020335 13.9870012 4.125 18.0625 C-0.28025942 20.79376084 -3.94922834 21.00187438 -9 20 C-12.125 18.0625 -12.125 18.0625 -14 15 C-14.93971476 10.31835797 -14.66873692 7.06997908 -12.125 3 C-8.46188547 -0.44763721 -4.88098361 -0.70129075 0 0 Z " fill="#FAF4E3" transform="translate(87,111)"/>
<path d="M0 0 C3.0625 1.875 3.0625 1.875 5 5 C5.87646572 9.11264682 6.18358551 13.0632237 3.92578125 16.7578125 C1.25722194 19.31670498 -1.47044428 20.3523582 -5.0625 20.625 C-9.72952305 19.88420269 -11.12403757 18.66031582 -14 15 C-15.55024464 11.89951072 -15.28992015 9.42105782 -15 6 C-10.99375822 -0.14290407 -7.04218849 -1.01990316 0 0 Z " fill="#FAF4E3" transform="translate(171,28)"/>
</svg>
